<mxfile host="65bd71144e">
    <diagram id="pxqD8ftWTvX-roTgs0lH" name="Page-1">
        <mxGraphModel dx="1354" dy="978" grid="1" gridSize="10" guides="1" tooltips="1" connect="1" arrows="1" fold="1" page="1" pageScale="1" pageWidth="850" pageHeight="1100" math="0" shadow="0">
            <root>
                <mxCell id="0"/>
                <mxCell id="1" parent="0"/>
                <mxCell id="5" value="MODELS" style="rounded=1;whiteSpace=wrap;html=1;fillColor=#d80073;fontColor=#ffffff;strokeColor=#A50040;" vertex="1" parent="1">
                    <mxGeometry x="80" y="290" width="120" height="60" as="geometry"/>
                </mxCell>
                <mxCell id="8" value="DB" style="shape=cylinder3;whiteSpace=wrap;html=1;boundedLbl=1;backgroundOutline=1;size=15;fontColor=#FFF9ED;" vertex="1" parent="1">
                    <mxGeometry x="120" y="150" width="60" height="80" as="geometry"/>
                </mxCell>
                <mxCell id="9" value="ACTIONS" style="rounded=1;whiteSpace=wrap;html=1;fontColor=#ffffff;fillColor=#e51400;strokeColor=#B20000;" vertex="1" parent="1">
                    <mxGeometry x="80" y="510" width="120" height="60" as="geometry"/>
                </mxCell>
                <mxCell id="10" value="SCRENNS" style="rounded=1;whiteSpace=wrap;html=1;fillColor=#6a00ff;strokeColor=#3700CC;fontColor=#ffffff;" vertex="1" parent="1">
                    <mxGeometry x="80" y="620" width="120" height="60" as="geometry"/>
                </mxCell>
                <mxCell id="11" value="Controller" style="rounded=1;whiteSpace=wrap;html=1;fontColor=#000000;fillColor=#e3c800;strokeColor=#B09500;" vertex="1" parent="1">
                    <mxGeometry x="80" y="400" width="120" height="60" as="geometry"/>
                </mxCell>
                <mxCell id="12" value="WIDGETS" style="rounded=1;whiteSpace=wrap;html=1;fontColor=#000000;fillColor=#f0a30a;strokeColor=#BD7000;" vertex="1" parent="1">
                    <mxGeometry x="80" y="720" width="120" height="60" as="geometry"/>
                </mxCell>
                <mxCell id="15" value="" style="edgeStyle=none;orthogonalLoop=1;jettySize=auto;html=1;fontColor=#FFF9ED;" edge="1" parent="1">
                    <mxGeometry width="100" relative="1" as="geometry">
                        <mxPoint x="210" y="320" as="sourcePoint"/>
                        <mxPoint x="310" y="320" as="targetPoint"/>
                        <Array as="points"/>
                    </mxGeometry>
                </mxCell>
                <mxCell id="17" value="TASK" style="whiteSpace=wrap;html=1;fontColor=#FFF9ED;" vertex="1" parent="1">
                    <mxGeometry x="300" y="300" width="100" height="40" as="geometry"/>
                </mxCell>
                <mxCell id="18" value="create class for &lt;br&gt;model" style="text;html=1;align=center;verticalAlign=middle;resizable=0;points=[];autosize=1;strokeColor=none;fillColor=none;fontColor=#FFF9ED;" vertex="1" parent="1">
                    <mxGeometry x="400" y="300" width="100" height="40" as="geometry"/>
                </mxCell>
                <mxCell id="20" value="" style="edgeStyle=none;orthogonalLoop=1;jettySize=auto;html=1;fontColor=#FFF9ED;" edge="1" parent="1">
                    <mxGeometry width="100" relative="1" as="geometry">
                        <mxPoint x="210" y="430" as="sourcePoint"/>
                        <mxPoint x="310" y="430" as="targetPoint"/>
                        <Array as="points"/>
                    </mxGeometry>
                </mxCell>
                <mxCell id="21" value="Task Provider Controller&lt;br&gt;" style="whiteSpace=wrap;html=1;fontColor=#FFF9ED;" vertex="1" parent="1">
                    <mxGeometry x="320" y="400" width="120" height="60" as="geometry"/>
                </mxCell>
                <mxCell id="22" value="" style="edgeStyle=none;orthogonalLoop=1;jettySize=auto;html=1;fontColor=#FFF9ED;" edge="1" parent="1">
                    <mxGeometry width="100" relative="1" as="geometry">
                        <mxPoint x="220" y="539.5" as="sourcePoint"/>
                        <mxPoint x="320" y="539.5" as="targetPoint"/>
                        <Array as="points"/>
                    </mxGeometry>
                </mxCell>
                <mxCell id="23" value="" style="edgeStyle=none;orthogonalLoop=1;jettySize=auto;html=1;fontColor=#FFF9ED;" edge="1" parent="1">
                    <mxGeometry width="100" relative="1" as="geometry">
                        <mxPoint x="440" y="420" as="sourcePoint"/>
                        <mxPoint x="540" y="420" as="targetPoint"/>
                        <Array as="points"/>
                    </mxGeometry>
                </mxCell>
                <mxCell id="24" value="&lt;p style=&quot;line-height: 280%;&quot;&gt;&lt;b&gt;&lt;font style=&quot;font-size: 18px;&quot;&gt;Riverpod AND Floor&amp;nbsp; &amp;nbsp;Stucture&lt;/font&gt;&lt;/b&gt;&lt;/p&gt;" style="rounded=0;whiteSpace=wrap;html=1;fontColor=#ffffff;fillColor=#e51400;strokeColor=#B20000;" vertex="1" parent="1">
                    <mxGeometry x="180" y="40" width="590" height="60" as="geometry"/>
                </mxCell>
                <mxCell id="25" value="&lt;div style=&quot;text-align: center;&quot;&gt;&lt;span style=&quot;background-color: initial;&quot;&gt;initialize&amp;nbsp; Controller For use&lt;/span&gt;&lt;/div&gt;&lt;div style=&quot;text-align: center;&quot;&gt;&lt;span style=&quot;background-color: initial;&quot;&gt;&amp;nbsp;build Function&amp;nbsp; &amp;nbsp;&lt;/span&gt;&lt;/div&gt;" style="whiteSpace=wrap;html=1;fontSize=18;fontColor=#FFF9ED;align=left;" vertex="1" parent="1">
                    <mxGeometry x="550" y="380" width="260" height="80" as="geometry"/>
                </mxCell>
            </root>
        </mxGraphModel>
    </diagram>
</mxfile>